<svg width="49" height="63" viewBox="0 0 49 63" fill="none" xmlns="http://www.w3.org/2000/svg">
<path d="M47.4986 38.4092V29.0994C47.4986 28.2906 48.1698 27.6195 49 27.6023C49 20.1855 49 12.7859 49 5.36902C49 4.76673 48.9117 4.18164 48.735 3.61377C48.2758 2.20268 47.3396 1.15296 46.0501 0.413002C45.5025 0.10325 44.8666 0.172084 44.2837 0C31.177 0 18.0703 0 4.98126 0C4.87527 0.0860421 4.73396 0.0516252 4.61031 0.0688337C3.7801 0.120459 2.98522 0.258126 2.33165 0.791587C0.830211 1.97897 0 3.4761 0 5.42065C0 11.1338 0 16.8298 0 22.543C0.123648 22.5086 0.229632 22.4914 0.35328 22.4914C1.20115 22.4914 1.89005 23.1625 1.89005 23.9885V38.4092C1.89005 39.2352 1.20115 39.9063 0.35328 39.9063C0.229632 39.9063 0.105984 39.8891 0 39.8719C0 44.0019 0 48.1491 0 52.2792C0 52.6233 3.23115e-06 52.9675 0.0529953 53.3289C0.51226 55.7208 1.97837 57.218 4.34535 57.9063C5.29921 58.1816 5.40519 58.3021 5.40519 59.283C5.40519 59.9713 5.38753 60.6769 5.40519 61.3652C5.44052 62.26 5.36987 62.6902 6.58868 63C7.77217 63 8.938 63 10.1215 63C10.881 62.914 11.252 62.3977 11.5523 61.7782C12.0292 60.7973 12.5591 59.8337 13.0361 58.87C13.3187 58.2849 13.7426 58.0268 14.4138 58.0268C21.1262 58.0268 27.8385 58.0268 34.5508 58.0268C35.2221 58.0268 35.646 58.3021 35.9286 58.87C36.4056 59.8509 36.9355 60.8145 37.4124 61.7782C37.7127 62.3977 38.0836 62.914 38.8432 63C40.0267 63 41.1925 63 42.376 63C43.5948 62.6902 43.5418 62.26 43.5595 61.3652C43.5771 60.6941 43.5595 60.0057 43.5595 59.3346C43.5595 58.2677 43.6478 58.1644 44.69 57.8891C47.2689 57.2008 48.9647 55.0669 48.9823 52.4684C48.9823 48.2868 48.9823 44.1052 48.9823 39.9063C48.1698 39.8891 47.4986 39.2352 47.4986 38.4092ZM20.2783 29.7878C19.4481 29.7878 18.7769 29.1338 18.7769 28.325C18.7769 27.5163 19.4481 26.8623 20.2783 26.8623C21.1085 26.8623 21.7797 27.5163 21.7797 28.325C21.7797 29.1338 21.1085 29.7878 20.2783 29.7878ZM25.8601 3.04589C25.8425 3.18356 25.8601 3.33843 25.8601 3.4761C25.8601 20.4264 25.8601 37.3595 25.8601 54.3097C25.8601 55.239 25.9661 55.1185 25.0653 55.1013C24.447 55.0841 23.6521 55.3767 23.2459 54.9809C22.8749 54.6195 23.1399 53.8451 23.1399 53.26C23.1399 45.1549 23.1399 37.0325 23.1399 28.9273C23.1399 20.4092 23.1399 11.8738 23.1222 3.35564C23.1222 2.75335 23.2988 2.56405 23.8994 2.61568C24.394 2.6673 24.9063 2.63289 25.4009 2.61568C25.7365 2.61568 25.8955 2.71893 25.8601 3.04589ZM28.757 29.7878C27.9268 29.7878 27.2556 29.1338 27.2556 28.325C27.2556 27.5163 27.9268 26.8623 28.757 26.8623C29.5872 26.8623 30.2585 27.5163 30.2585 28.325C30.2585 29.1338 29.5872 29.7878 28.757 29.7878Z" fill="#935042"/>
<path d="M40 16H49V47H40V16Z" fill="#935042"/>
<path d="M0 16H9V47H0V16Z" fill="#935042"/>
</svg>
