<svg width="150" height="63" viewBox="0 0 150 63" fill="none" xmlns="http://www.w3.org/2000/svg">
<path d="M101.934 38.3789V29.0765C101.934 28.2683 102.606 27.5977 103.438 27.5805C103.438 20.1695 103.438 12.7758 103.438 5.36479C103.438 4.76297 103.349 4.17835 103.172 3.61092C102.712 2.20094 101.774 1.15205 100.482 0.412676C99.9338 0.103169 99.2967 0.171948 98.7126 0C85.5811 0 72.4495 0 59.3357 0C59.2295 0.0859742 59.0879 0.0515845 58.964 0.0687794C58.1323 0.120364 57.3359 0.257923 56.6811 0.790963C55.1768 1.97741 54.345 3.47336 54.345 5.41637C54.345 11.1251 54.345 16.8166 54.345 22.5252C54.4689 22.4908 54.5751 22.4737 54.6989 22.4737C55.5484 22.4737 56.2386 23.1443 56.2386 23.9696V38.3789C56.2386 39.2042 55.5484 39.8748 54.6989 39.8748C54.5751 39.8748 54.4512 39.8576 54.345 39.8404C54.345 43.9672 54.345 48.1112 54.345 52.2379C54.345 52.5818 54.345 52.9257 54.3981 53.2868C54.8582 55.6769 56.3271 57.1728 58.6986 57.8606C59.6542 58.1358 59.7604 58.2561 59.7604 59.2362C59.7604 59.924 59.7427 60.629 59.7604 61.3168C59.7958 62.2109 59.725 62.6408 60.9462 62.9503C62.1319 62.9503 63.2999 62.9503 64.4857 62.9503C65.2467 62.8643 65.6183 62.3485 65.9192 61.7295C66.397 60.7494 66.9279 59.7865 67.4057 58.8235C67.6889 58.2389 68.1136 57.981 68.7862 57.981C75.5112 57.981 82.2363 57.981 88.9613 57.981C89.6338 57.981 90.0586 58.2561 90.3417 58.8235C90.8196 59.8037 91.3505 60.7666 91.8283 61.7295C92.1292 62.3485 92.5008 62.8643 93.2618 62.9503C94.4475 62.9503 95.6156 62.9503 96.8013 62.9503C98.0224 62.6408 97.9693 62.2109 97.987 61.3168C98.0047 60.6462 97.987 59.9584 97.987 59.2878C97.987 58.2217 98.0755 58.1186 99.1197 57.8434C101.704 57.1556 103.402 55.0235 103.42 52.4271C103.42 48.2487 103.42 44.0704 103.42 39.8748C102.606 39.8576 101.934 39.2042 101.934 38.3789ZM74.6617 29.7643C73.8299 29.7643 73.1574 29.1109 73.1574 28.3027C73.1574 27.4945 73.8299 26.8411 74.6617 26.8411C75.4935 26.8411 76.166 27.4945 76.166 28.3027C76.166 29.1109 75.4935 29.7643 74.6617 29.7643ZM80.2541 3.04349C80.2364 3.18105 80.2541 3.3358 80.2541 3.47336C80.2541 20.4103 80.2541 37.33 80.2541 54.2669C80.2541 55.1954 80.3603 55.0751 79.4578 55.0579C78.8383 55.0407 78.0419 55.333 77.6349 54.9375C77.2633 54.5764 77.5287 53.8027 77.5287 53.218C77.5287 45.1193 77.5287 37.0033 77.5287 28.9045C77.5287 20.3931 77.5287 11.8644 77.511 3.35299C77.511 2.75117 77.688 2.56203 78.2897 2.61362C78.7852 2.6652 79.2985 2.63081 79.794 2.61362C80.1303 2.61362 80.2895 2.71678 80.2541 3.04349ZM83.1565 29.7643C82.3247 29.7643 81.6522 29.1109 81.6522 28.3027C81.6522 27.4945 82.3247 26.8411 83.1565 26.8411C83.9883 26.8411 84.6608 27.4945 84.6608 28.3027C84.6608 29.1109 83.9883 29.7643 83.1565 29.7643Z" fill="#935042"/>
<path d="M19.4986 27.7181C18.7199 27.3914 17.7996 27.7181 17.4811 28.4747L14.5433 35.1979L11.6055 28.4747C11.3754 27.9244 10.8091 27.5805 10.2074 27.5805C9.60569 27.5805 9.03937 27.9244 8.8093 28.4747L5.87152 35.1979L2.93373 28.4747C2.59748 27.7181 1.69491 27.3742 0.916215 27.7181C0.137525 28.0448 -0.216425 28.9217 0.137525 29.6783L4.47341 39.2386C4.72118 39.7717 5.2698 40.1328 5.87152 40.1328C6.47323 40.1328 7.03955 39.7889 7.26962 39.2386L10.2074 32.6358L13.1452 39.2386C13.393 39.7717 13.9416 40.1328 14.5433 40.1328C15.145 40.1328 15.6936 39.7889 15.9414 39.2386L20.2773 29.6783C20.6135 28.9217 20.2596 28.0448 19.4986 27.7181Z" fill="#935042"/>
<path d="M31.1966 27.5805C30.3472 27.5805 29.657 28.2511 29.657 29.0765V29.1796C28.5774 28.0448 27.1085 27.3398 25.4627 27.3398C22.1709 27.3398 19.4986 30.1941 19.4986 33.7363C19.4986 37.2612 22.1709 40.1327 25.4627 40.1327C27.0908 40.1327 28.5774 39.4278 29.657 38.2929V38.3961C29.657 39.2214 30.3472 39.892 31.1966 39.892C32.0461 39.892 32.7363 39.2214 32.7363 38.3961V29.0765C32.7186 28.2511 32.0284 27.5805 31.1966 27.5805ZM26.1529 37.33C24.1707 37.33 22.578 35.7137 22.578 33.7363C22.578 31.7589 24.1884 30.1425 26.1529 30.1425C28.1173 30.1425 29.7277 31.7589 29.7277 33.7363C29.7277 35.7137 28.135 37.33 26.1529 37.33Z" fill="#935042"/>
<path d="M42.5054 27.5289C42.0452 27.4086 41.5497 27.3398 41.0542 27.3398C39.3906 27.3398 37.9217 28.062 36.9483 29.1968V29.0765C36.9483 28.2511 36.2581 27.5805 35.4087 27.5805C34.5592 27.5805 33.869 28.2511 33.869 29.0765V38.3961C33.869 39.2214 34.5592 39.892 35.4087 39.892C36.2581 39.892 36.9483 39.2214 36.9483 38.3961V33.3752C36.9483 31.5869 38.3818 30.1425 40.1516 30.1425C40.594 30.1425 41.0365 30.2285 41.4081 30.4005C41.9036 30.624 42.47 30.5724 42.9301 30.2973L42.9655 30.2801C44.0804 29.5407 43.815 27.8728 42.5054 27.5289Z" fill="#935042"/>
<path d="M53.1593 23.9868V29.1796C52.0797 28.0448 50.6108 27.3398 48.9649 27.3398C45.6732 27.3398 43.0009 30.1941 43.0009 33.7363C43.0009 37.2612 45.6732 40.1327 48.9649 40.1327C50.5931 40.1327 52.0797 39.4278 53.1593 38.2929V38.3961C53.1593 39.101 53.6548 39.6857 54.345 39.8404C54.345 34.0802 54.345 28.3027 54.345 22.5424C53.6725 22.6972 53.1593 23.2818 53.1593 23.9868ZM49.6728 37.33C47.6907 37.33 46.098 35.7137 46.098 33.7363C46.098 31.7589 47.7084 30.1425 49.6728 30.1425C51.655 30.1425 53.2477 31.7589 53.2477 33.7363C53.2477 35.7137 51.6373 37.33 49.6728 37.33Z" fill="#935042"/>
<path d="M110.57 27.5289C110.11 27.4086 109.614 27.3398 109.119 27.3398C107.473 27.3398 105.986 28.062 105.013 29.1968V29.0765C105.013 28.2511 104.323 27.5805 103.473 27.5805C103.456 27.5805 103.456 27.5805 103.438 27.5805C103.438 31.6729 103.438 35.7653 103.438 39.8748C103.456 39.8748 103.456 39.8748 103.473 39.8748C104.323 39.8748 105.013 39.2042 105.013 38.3789V33.358C105.013 31.5697 106.446 30.1253 108.216 30.1253C108.659 30.1253 109.101 30.2113 109.473 30.3833C109.968 30.6068 110.535 30.5552 110.995 30.2801L111.03 30.2629C112.145 29.5407 111.862 27.8728 110.57 27.5289Z" fill="#935042"/>
<path d="M117.737 27.3398C114.074 27.3398 111.101 30.1941 111.101 33.7363C111.101 37.2612 114.074 40.1327 117.737 40.1327C120.958 40.1327 123.648 37.9146 124.25 34.9915V32.4982C123.648 29.5407 120.958 27.3398 117.737 27.3398ZM117.737 37.33C115.755 37.33 114.163 35.7137 114.163 33.7363C114.163 31.7589 115.773 30.1425 117.737 30.1425C119.702 30.1425 121.312 31.7589 121.312 33.7363C121.312 35.7137 119.702 37.33 117.737 37.33Z" fill="#935042"/>
<path d="M137.276 32.1544C136.621 29.386 134.285 27.3226 131.506 27.3226C129.878 27.3226 128.391 28.0276 127.312 29.1625V23.9696C127.312 23.1443 126.622 22.4737 125.772 22.4737C124.923 22.4737 124.232 23.1443 124.232 23.9696V32.4639C124.321 32.8765 124.356 33.2892 124.356 33.7191C124.356 34.149 124.303 34.5616 124.232 34.9743V38.3789C124.232 39.2042 124.923 39.8748 125.772 39.8748C126.622 39.8748 127.312 39.2042 127.312 38.3789V38.2757C128.391 39.4106 129.86 40.1156 131.506 40.1156C134.285 40.1156 136.621 38.0866 137.276 35.3182C137.152 34.8196 137.081 34.2865 137.081 33.7535C137.081 33.2032 137.152 32.6702 137.276 32.1544ZM130.816 37.33C128.834 37.33 127.241 35.7137 127.241 33.7363C127.241 31.7589 128.851 30.1426 130.816 30.1426C132.78 30.1426 134.391 31.7589 134.391 33.7363C134.391 35.7137 132.798 37.33 130.816 37.33Z" fill="#935042"/>
<path d="M124.25 32.481V34.9743C124.339 34.5616 124.374 34.1489 124.374 33.7191C124.374 33.3064 124.339 32.8765 124.25 32.481Z" fill="#935042"/>
<path d="M143.558 27.3398C140.461 27.3398 137.983 29.4032 137.276 32.1543C137.399 32.653 137.452 33.186 137.452 33.7191C137.452 34.2693 137.382 34.8023 137.258 35.3182C137.966 38.1209 140.532 40.1155 143.753 40.1155C145.275 40.1155 147.08 39.6513 148.69 38.8603C149.398 38.5164 149.681 37.6739 149.31 36.9861C148.956 36.2983 148.089 36.0232 147.381 36.3843C146.177 36.9861 144.832 37.33 143.753 37.33C142.248 37.33 141.045 36.5562 140.496 35.3698H148.567C149.363 35.3698 150 34.7508 150 33.977V33.7363C150 30.2285 147.204 27.3398 143.558 27.3398ZM140.319 32.5842C140.762 31.157 142.036 30.1425 143.558 30.1425C145.098 30.1425 146.354 31.157 146.797 32.5842H140.319Z" fill="#935042"/>
<path d="M137.276 32.1544C137.152 32.6702 137.081 33.2032 137.081 33.7535C137.081 34.3037 137.152 34.8196 137.276 35.3182C137.399 34.8024 137.47 34.2693 137.47 33.7191C137.452 33.186 137.399 32.6702 137.276 32.1544Z" fill="#935042"/>
</svg>
